<?xml version="1.0" standalone="no"?>
<!DOCTYPE svg PUBLIC "-//W3C//DTD SVG 1.1//EN"
"http://www.w3.org/Graphics/SVG/1.1/DTD/svg11.dtd">

<svg width="645" height="506" view_box="0 0 645 506"
xmlns="http://www.w3.org/2000/svg"
xmlns:link="http://www.w3.org/1999/xlink">\n\n<desc>Généré par Mocodo 2.3.7 le Thu, 09 Jun 2022 07:27:07</desc>

<rect id="frame" x="0" y="0" width="645" height="506" fill="#ffffbf" stroke="none" stroke-width="0"/>

<!-- Association VALIDER -->
<line x1="590" y1="450" x2="470" y2="470" stroke="#f46d43" stroke-width="2"/>
<text x="518" y="450.92534047" fill="#3288bd" font-family="Verdana" font-size="12">1,1</text>
<line x1="333" y1="450" x2="470" y2="470" stroke="#f46d43" stroke-width="2"/>
<text x="386" y="450.102899441" fill="#3288bd" font-family="Verdana" font-size="12">1,1</text>
<g id="association-VALIDER">
	<path d="M 490 445 a 14 14 90 0 1 14 14 V 470 h -68 V 459 a 14 14 90 0 1 14 -14" fill="#fdae61" stroke="#fdae61" stroke-width="0"/>
	<path d="M 504 470.0 v 11 a 14 14 90 0 1 -14 14 H 450 a 14 14 90 0 1 -14 -14 V 470.0 H 68" fill="#fee08b" stroke="#fee08b" stroke-width="0"/>
	<rect x="436" y="445" width="68" height="50" fill="none" rx="14" stroke="#f46d43" stroke-width="2"/>
	<line x1="436" y1="470" x2="504" y2="470" stroke="#f46d43" stroke-width="1"/>
	<text x="443" y="462.7" fill="#000000" font-family="Verdana" font-size="12">VALIDER</text>
</g>

<!-- Association PARTICIPER -->
<line x1="470" y1="77" x2="333" y2="170" stroke="#f46d43" stroke-width="2"/>
<text x="391" y="109.491318324" fill="#3288bd" font-family="Verdana" font-size="12">0,N</text>
<line x1="333" y1="300" x2="333" y2="170" stroke="#f46d43" stroke-width="2"/>
<text x="338.0" y="233" fill="#3288bd" font-family="Verdana" font-size="12">0,N</text>
<g id="association-PARTICIPER">
	<path d="M 363 145 a 14 14 90 0 1 14 14 V 170 h -88 V 159 a 14 14 90 0 1 14 -14" fill="#fdae61" stroke="#fdae61" stroke-width="0"/>
	<path d="M 377 170.0 v 11 a 14 14 90 0 1 -14 14 H 303 a 14 14 90 0 1 -14 -14 V 170.0 H 88" fill="#fee08b" stroke="#fee08b" stroke-width="0"/>
	<rect x="289" y="145" width="88" height="50" fill="none" rx="14" stroke="#f46d43" stroke-width="2"/>
	<line x1="289" y1="170" x2="377" y2="170" stroke="#f46d43" stroke-width="1"/>
	<text x="296" y="162.7" fill="#000000" font-family="Verdana" font-size="12">PARTICIPER</text>
</g>

<!-- Association POSSEDE -->
<line x1="333" y1="300" x2="185" y2="400" stroke="#f46d43" stroke-width="2"/>
<text x="260" y="328.251880239" fill="#3288bd" font-family="Verdana" font-size="12">0,N</text>
<path d="M333 450 C 286.910233295 469.902105843 237.576899962 453.235439176 185 400" fill="none" stroke="#f46d43" stroke-width="2"/>
<text x="259" y="444.635154567" fill="#3288bd" font-family="Verdana" font-size="12">1,1</text>
<g id="association-POSSEDE">
	<path d="M 208 375 a 14 14 90 0 1 14 14 V 400 h -74 V 389 a 14 14 90 0 1 14 -14" fill="#fdae61" stroke="#fdae61" stroke-width="0"/>
	<path d="M 222 400.0 v 11 a 14 14 90 0 1 -14 14 H 162 a 14 14 90 0 1 -14 -14 V 400.0 H 74" fill="#fee08b" stroke="#fee08b" stroke-width="0"/>
	<rect x="148" y="375" width="74" height="50" fill="none" rx="14" stroke="#f46d43" stroke-width="2"/>
	<line x1="148" y1="400" x2="222" y2="400" stroke="#f46d43" stroke-width="1"/>
	<text x="155" y="392.7" fill="#000000" font-family="Verdana" font-size="12">POSSEDE</text>
</g>

<!-- Association CORRESPOND -->
<line x1="333" y1="300" x2="470" y2="300" stroke="#f46d43" stroke-width="2"/>
<text x="384" y="317.0" fill="#3288bd" font-family="Verdana" font-size="12">0,1</text>
<line x1="594" y1="300" x2="470" y2="300" stroke="#f46d43" stroke-width="2"/>
<text x="525" y="317.0" fill="#3288bd" font-family="Verdana" font-size="12">0,N</text>
<g id="association-CORRESPOND">
	<path d="M 506 275 a 14 14 90 0 1 14 14 V 300 h -100 V 289 a 14 14 90 0 1 14 -14" fill="#fdae61" stroke="#fdae61" stroke-width="0"/>
	<path d="M 520 300.0 v 11 a 14 14 90 0 1 -14 14 H 434 a 14 14 90 0 1 -14 -14 V 300.0 H 100" fill="#fee08b" stroke="#fee08b" stroke-width="0"/>
	<rect x="420" y="275" width="100" height="50" fill="none" rx="14" stroke="#f46d43" stroke-width="2"/>
	<line x1="420" y1="300" x2="520" y2="300" stroke="#f46d43" stroke-width="1"/>
	<text x="427" y="292.7" fill="#000000" font-family="Verdana" font-size="12">CORRESPOND</text>
</g>

<!-- Association PROPOSER -->
<line x1="590" y1="450" x2="470" y2="370" stroke="#f46d43" stroke-width="2"/>
<text x="518" y="431.223475877" fill="#3288bd" font-family="Verdana" font-size="12">1,1</text>
<line x1="333" y1="450" x2="470" y2="370" stroke="#f46d43" stroke-width="2"/>
<text x="386" y="434.440323472" fill="#3288bd" font-family="Verdana" font-size="12">0,N</text>
<g id="association-PROPOSER">
	<path d="M 497 345 a 14 14 90 0 1 14 14 V 370 h -82 V 359 a 14 14 90 0 1 14 -14" fill="#fdae61" stroke="#fdae61" stroke-width="0"/>
	<path d="M 511 370.0 v 11 a 14 14 90 0 1 -14 14 H 443 a 14 14 90 0 1 -14 -14 V 370.0 H 82" fill="#fee08b" stroke="#fee08b" stroke-width="0"/>
	<rect x="429" y="345" width="82" height="50" fill="none" rx="14" stroke="#f46d43" stroke-width="2"/>
	<line x1="429" y1="370" x2="511" y2="370" stroke="#f46d43" stroke-width="1"/>
	<text x="436" y="362.7" fill="#000000" font-family="Verdana" font-size="12">PROPOSER</text>
</g>

<!-- Association PEUT AJOUTER -->
<line x1="470" y1="77" x2="333" y2="77" stroke="#f46d43" stroke-width="2"/>
<text x="391" y="69.0" fill="#3288bd" font-family="Verdana" font-size="12">0,N</text>
<line x1="185" y1="77" x2="333" y2="77" stroke="#f46d43" stroke-width="2"/>
<text x="253" y="94.0" fill="#3288bd" font-family="Verdana" font-size="12">0,N</text>
<g id="association-PEUT AJOUTER">
	<path d="M 372 52 a 14 14 90 0 1 14 14 V 77 h -106 V 66 a 14 14 90 0 1 14 -14" fill="#fdae61" stroke="#fdae61" stroke-width="0"/>
	<path d="M 386 77.0 v 11 a 14 14 90 0 1 -14 14 H 294 a 14 14 90 0 1 -14 -14 V 77.0 H 106" fill="#fee08b" stroke="#fee08b" stroke-width="0"/>
	<rect x="280" y="52" width="106" height="50" fill="none" rx="14" stroke="#f46d43" stroke-width="2"/>
	<line x1="280" y1="77" x2="386" y2="77" stroke="#f46d43" stroke-width="1"/>
	<text x="287" y="69.7" fill="#000000" font-family="Verdana" font-size="12">PEUT AJOUTER</text>
</g>

<!-- Association REFERENCER -->
<line x1="57" y1="279" x2="185" y2="300" stroke="#f46d43" stroke-width="2"/>
<text x="102" y="278.800565784" fill="#3288bd" font-family="Verdana" font-size="12">0,N</text>
<line x1="333" y1="300" x2="185" y2="300" stroke="#f46d43" stroke-width="2"/>
<text x="260" y="317.0" fill="#3288bd" font-family="Verdana" font-size="12">0,N</text>
<g id="association-REFERENCER">
	<path d="M 219 275 a 14 14 90 0 1 14 14 V 300 h -96 V 289 a 14 14 90 0 1 14 -14" fill="#fdae61" stroke="#fdae61" stroke-width="0"/>
	<path d="M 233 300.0 v 11 a 14 14 90 0 1 -14 14 H 151 a 14 14 90 0 1 -14 -14 V 300.0 H 96" fill="#fee08b" stroke="#fee08b" stroke-width="0"/>
	<rect x="137" y="275" width="96" height="50" fill="none" rx="14" stroke="#f46d43" stroke-width="2"/>
	<line x1="137" y1="300" x2="233" y2="300" stroke="#f46d43" stroke-width="1"/>
	<text x="144" y="292.7" fill="#000000" font-family="Verdana" font-size="12">REFERENCER</text>
</g>

<!-- Association ASSOCIER -->
<line x1="185" y1="77" x2="185" y2="170" stroke="#f46d43" stroke-width="2"/>
<text x="190.0" y="128" fill="#3288bd" font-family="Verdana" font-size="12">0,N</text>
<line x1="57" y1="279" x2="185" y2="170" stroke="#f46d43" stroke-width="2"/>
<text x="102" y="255.665616215" fill="#3288bd" font-family="Verdana" font-size="12">0,N</text>
<g id="association-ASSOCIER">
	<path d="M 210 145 a 14 14 90 0 1 14 14 V 170 h -78 V 159 a 14 14 90 0 1 14 -14" fill="#fdae61" stroke="#fdae61" stroke-width="0"/>
	<path d="M 224 170.0 v 11 a 14 14 90 0 1 -14 14 H 160 a 14 14 90 0 1 -14 -14 V 170.0 H 78" fill="#fee08b" stroke="#fee08b" stroke-width="0"/>
	<rect x="146" y="145" width="78" height="50" fill="none" rx="14" stroke="#f46d43" stroke-width="2"/>
	<line x1="146" y1="170" x2="224" y2="170" stroke="#f46d43" stroke-width="1"/>
	<text x="153" y="162.7" fill="#000000" font-family="Verdana" font-size="12">ASSOCIER</text>
</g>

<!-- Entity ARTICLES -->
<g id="entity-ARTICLES">
	<g id="frame-ARTICLES">
		<rect x="17" y="228" width="80" height="25" fill="#abdda4" stroke="#abdda4" stroke-width="0"/>
		<rect x="17" y="253.0" width="80" height="77" fill="#e6f598" stroke="#e6f598" stroke-width="0"/>
		<rect x="17" y="228" width="80" height="102" fill="none" stroke="#66c2a5" stroke-width="2"/>
		<line x1="17" y1="253" x2="97" y2="253" stroke="#66c2a5" stroke-width="1"/>
	</g>
	<text x="26" y="245.7" fill="#000000" font-family="Verdana" font-size="12">ARTICLES</text>
	<text x="22" y="270.7" fill="#000000" font-family="Verdana" font-size="12">code article</text>
	<line x1="22" y1="273" x2="92" y2="273" stroke="#000000" stroke-width="1"/>
	<text x="22" y="287.8" fill="#000000" font-family="Verdana" font-size="12">nom</text>
	<text x="22" y="304.8" fill="#000000" font-family="Verdana" font-size="12">auteur</text>
	<text x="22" y="321.8" fill="#000000" font-family="Verdana" font-size="12">texte</text>
</g>

<!-- Entity UTILISATEUR -->
<g id="entity-UTILISATEUR">
	<g id="frame-UTILISATEUR">
		<rect x="418" y="9" width="104" height="25" fill="#abdda4" stroke="#abdda4" stroke-width="0"/>
		<rect x="418" y="34.0" width="104" height="111" fill="#e6f598" stroke="#e6f598" stroke-width="0"/>
		<rect x="418" y="9" width="104" height="136" fill="none" stroke="#66c2a5" stroke-width="2"/>
		<line x1="418" y1="34" x2="522" y2="34" stroke="#66c2a5" stroke-width="1"/>
	</g>
	<text x="428" y="26.7" fill="#000000" font-family="Verdana" font-size="12">UTILISATEUR</text>
	<text x="423" y="51.7" fill="#000000" font-family="Verdana" font-size="12">code utilisateur</text>
	<line x1="423" y1="54" x2="517" y2="54" stroke="#000000" stroke-width="1"/>
	<text x="423" y="68.7" fill="#000000" font-family="Verdana" font-size="12">pseudo</text>
	<text x="423" y="85.8" fill="#000000" font-family="Verdana" font-size="12">mail</text>
	<text x="423" y="102.8" fill="#000000" font-family="Verdana" font-size="12">mot de passe</text>
	<text x="423" y="119.8" fill="#000000" font-family="Verdana" font-size="12">niveau</text>
	<text x="423" y="136.8" fill="#000000" font-family="Verdana" font-size="12">points</text>
</g>

<!-- Entity NIVEAU -->
<g id="entity-NIVEAU">
	<g id="frame-NIVEAU">
		<rect x="552" y="266" width="84" height="25" fill="#abdda4" stroke="#abdda4" stroke-width="0"/>
		<rect x="552" y="291.0" width="84" height="43" fill="#e6f598" stroke="#e6f598" stroke-width="0"/>
		<rect x="552" y="266" width="84" height="68" fill="none" stroke="#66c2a5" stroke-width="2"/>
		<line x1="552" y1="291" x2="636" y2="291" stroke="#66c2a5" stroke-width="1"/>
	</g>
	<text x="570" y="283.7" fill="#000000" font-family="Verdana" font-size="12">NIVEAU</text>
	<text x="557" y="308.8" fill="#000000" font-family="Verdana" font-size="12">code niveau</text>
	<line x1="557" y1="311" x2="630" y2="311" stroke="#000000" stroke-width="1"/>
	<text x="557" y="325.8" fill="#000000" font-family="Verdana" font-size="12">nom</text>
</g>

<!-- Entity QUESTION -->
<g id="entity-QUESTION">
	<g id="frame-QUESTION">
		<rect x="285" y="416" width="96" height="25" fill="#abdda4" stroke="#abdda4" stroke-width="0"/>
		<rect x="285" y="441.0" width="96" height="43" fill="#e6f598" stroke="#e6f598" stroke-width="0"/>
		<rect x="285" y="416" width="96" height="68" fill="none" stroke="#66c2a5" stroke-width="2"/>
		<line x1="285" y1="441" x2="381" y2="441" stroke="#66c2a5" stroke-width="1"/>
	</g>
	<text x="300" y="433.7" fill="#000000" font-family="Verdana" font-size="12">QUESTION</text>
	<text x="290" y="458.8" fill="#000000" font-family="Verdana" font-size="12">code question</text>
	<line x1="290" y1="461" x2="375" y2="461" stroke="#000000" stroke-width="1"/>
	<text x="290" y="475.8" fill="#000000" font-family="Verdana" font-size="12">description</text>
</g>

<!-- Entity REPONSE -->
<g id="entity-REPONSE">
	<g id="frame-REPONSE">
		<rect x="544" y="416" width="92" height="25" fill="#abdda4" stroke="#abdda4" stroke-width="0"/>
		<rect x="544" y="441.0" width="92" height="43" fill="#e6f598" stroke="#e6f598" stroke-width="0"/>
		<rect x="544" y="416" width="92" height="68" fill="none" stroke="#66c2a5" stroke-width="2"/>
		<line x1="544" y1="441" x2="636" y2="441" stroke="#66c2a5" stroke-width="1"/>
	</g>
	<text x="561" y="433.7" fill="#000000" font-family="Verdana" font-size="12">REPONSE</text>
	<text x="549" y="458.8" fill="#000000" font-family="Verdana" font-size="12">code reponse</text>
	<line x1="549" y1="461" x2="630" y2="461" stroke="#000000" stroke-width="1"/>
	<text x="549" y="475.8" fill="#000000" font-family="Verdana" font-size="12">reponse</text>
</g>

<!-- Entity CHALLENGES -->
<g id="entity-CHALLENGES">
	<g id="frame-CHALLENGES">
		<rect x="287" y="241" width="92" height="25" fill="#abdda4" stroke="#abdda4" stroke-width="0"/>
		<rect x="287" y="266.0" width="92" height="93" fill="#e6f598" stroke="#e6f598" stroke-width="0"/>
		<rect x="287" y="241" width="92" height="118" fill="none" stroke="#66c2a5" stroke-width="2"/>
		<line x1="287" y1="266" x2="379" y2="266" stroke="#66c2a5" stroke-width="1"/>
	</g>
	<text x="292" y="258.7" fill="#000000" font-family="Verdana" font-size="12">CHALLENGES</text>
	<text x="292" y="283.7" fill="#000000" font-family="Verdana" font-size="12">nom</text>
	<line x1="292" y1="286" x2="320" y2="286" stroke="#000000" stroke-width="1"/>
	<text x="292" y="300.8" fill="#000000" font-family="Verdana" font-size="12">récompense</text>
	<text x="292" y="317.8" fill="#000000" font-family="Verdana" font-size="12">code articles</text>
	<text x="292" y="334.8" fill="#000000" font-family="Verdana" font-size="12">texte</text>
</g>

<!-- Entity LEXIQUE -->
<g id="entity-LEXIQUE">
	<g id="frame-LEXIQUE">
		<rect x="24" y="43" width="66" height="25" fill="#abdda4" stroke="#abdda4" stroke-width="0"/>
		<rect x="24" y="68.0" width="66" height="43" fill="#e6f598" stroke="#e6f598" stroke-width="0"/>
		<rect x="24" y="43" width="66" height="68" fill="none" stroke="#66c2a5" stroke-width="2"/>
		<line x1="24" y1="68" x2="90" y2="68" stroke="#66c2a5" stroke-width="1"/>
	</g>
	<text x="30" y="60.7" fill="#000000" font-family="Verdana" font-size="12">LEXIQUE</text>
	<text x="29" y="85.8" fill="#000000" font-family="Verdana" font-size="12">nom mot</text>
	<line x1="29" y1="88" x2="84" y2="88" stroke="#000000" stroke-width="1"/>
	<text x="29" y="102.8" fill="#000000" font-family="Verdana" font-size="12">texte</text>
</g>

<!-- Entity CRYPTOMONNAIES -->
<g id="entity-CRYPTOMONNAIES">
	<g id="frame-CRYPTOMONNAIES">
		<rect x="122" y="43" width="126" height="25" fill="#abdda4" stroke="#abdda4" stroke-width="0"/>
		<rect x="122" y="68.0" width="126" height="43" fill="#e6f598" stroke="#e6f598" stroke-width="0"/>
		<rect x="122" y="43" width="126" height="68" fill="none" stroke="#66c2a5" stroke-width="2"/>
		<line x1="122" y1="68" x2="248" y2="68" stroke="#66c2a5" stroke-width="1"/>
	</g>
	<text x="127" y="60.7" fill="#000000" font-family="Verdana" font-size="12">CRYPTOMONNAIES</text>
	<text x="127" y="85.8" fill="#000000" font-family="Verdana" font-size="12">code cryptos</text>
	<line x1="127" y1="88" x2="205" y2="88" stroke="#000000" stroke-width="1"/>
	<text x="127" y="102.8" fill="#000000" font-family="Verdana" font-size="12">nom</text>
</g>
</svg>